<?xml version="1.0" standalone="no"?>
<!DOCTYPE svg PUBLIC "-//W3C//DTD SVG 20010904//EN"
 "http://www.w3.org/TR/2001/REC-SVG-20010904/DTD/svg10.dtd">
<svg version="1.0" xmlns="http://www.w3.org/2000/svg"
 width="1842.000000pt" height="1842.000000pt" viewBox="0 0 1842.000000 1842.000000"
 preserveAspectRatio="xMidYMid meet">

<g transform="translate(0.000000,1842.000000) scale(0.100000,-0.100000)"
fill="#000000" stroke="none">
<path d="M9095 17565 c-497 -92 -845 -506 -845 -1005 0 -268 97 -512 277 -700
l73 -77 0 -636 0 -635 -502 -5 c-547 -5 -609 -10 -824 -66 -457 -120 -865
-418 -1129 -824 -31 -48 -86 -148 -121 -222 l-65 -135 -437 0 -437 0 -50 -24
c-60 -28 -97 -66 -124 -126 -20 -44 -21 -60 -21 -1196 l0 -1150 26 -52 c14
-29 42 -65 62 -82 71 -59 83 -60 566 -60 l441 0 45 -97 c58 -126 176 -304 282
-428 255 -296 608 -512 997 -610 221 -56 195 -55 1952 -55 1069 0 1653 4 1717
11 650 70 1222 471 1518 1063 l56 111 441 5 c399 5 446 7 478 23 52 26 99 75
125 132 l24 50 0 1136 c0 1247 3 1184 -60 1261 -17 20 -53 48 -82 62 l-52 26
-422 0 c-325 0 -424 3 -432 13 -5 6 -24 46 -42 87 -142 328 -414 643 -730 845
-108 70 -318 167 -445 208 -251 80 -421 97 -1007 97 l-408 0 0 638 0 638 41
39 c121 118 231 310 274 480 140 552 -196 1110 -750 1246 -109 27 -305 33
-410 14z m153 -772 l-3 -308 -94 -197 -94 -198 -50 28 c-189 103 -300 325
-267 538 30 200 190 375 390 428 30 8 70 15 88 15 l33 1 -3 -307z m232 -1723
l0 -560 -185 0 -185 0 0 560 0 560 185 0 185 0 0 -560z m1580 -1104 c302 -71
543 -202 751 -406 248 -245 400 -552 439 -890 8 -64 10 -324 8 -790 -4 -672
-5 -698 -26 -792 -148 -651 -675 -1122 -1331 -1188 -141 -14 -3161 -14 -3302
0 -660 66 -1181 535 -1332 1198 -22 95 -22 110 -22 837 0 818 -1 802 67 1015
163 510 596 902 1114 1009 55 11 110 22 124 24 14 3 792 4 1730 3 1598 -2
1710 -3 1780 -20z m-5200 -2046 l0 -840 -225 0 -225 0 0 840 0 840 225 0 225
0 0 -840z m7270 0 l0 -840 -225 0 -225 0 0 840 0 840 225 0 225 0 0 -840z"/>
<path d="M7608 13359 c-147 -22 -313 -88 -432 -173 -68 -48 -186 -169 -233
-237 -40 -57 -91 -160 -115 -229 -49 -142 -50 -156 -55 -700 -5 -538 1 -669
36 -790 87 -305 313 -549 604 -652 169 -60 102 -58 1844 -58 1548 0 1598 1
1691 20 375 76 656 345 754 722 20 79 21 110 25 613 5 575 0 671 -44 810 -52
163 -132 293 -254 411 -126 120 -259 196 -426 242 l-98 27 -1620 1 c-891 1
-1646 -2 -1677 -7z m617 -854 c226 -57 403 -241 451 -466 18 -85 14 -215 -10
-292 -51 -161 -161 -294 -305 -367 -59 -29 -154 -61 -180 -59 -9 0 6 7 32 14
86 24 159 66 227 134 79 78 123 161 146 275 55 267 -131 544 -403 601 -38 8
-78 15 -90 15 l-22 0 -3 -307 -3 -308 -93 -194 c-51 -107 -91 -195 -90 -196 2
-1 17 -7 33 -14 l30 -11 -30 6 c-72 13 -180 78 -255 154 -87 86 -132 164 -160
276 -54 212 3 420 159 574 84 84 180 141 277 164 79 19 216 19 289 1z m2340 0
c226 -57 403 -241 451 -466 18 -85 14 -215 -10 -292 -51 -161 -161 -294 -305
-367 -81 -40 -117 -47 -43 -8 268 142 363 451 220 720 -39 74 -137 167 -217
208 -59 29 -168 59 -218 60 l-22 0 -3 -307 -3 -308 -93 -194 c-51 -107 -91
-195 -90 -197 2 -1 26 -9 53 -18 47 -15 48 -16 10 -10 -101 15 -233 91 -315
181 -101 111 -149 226 -157 378 -7 119 9 192 64 305 69 143 235 277 389 314
79 19 216 19 289 1z m10 -1175 c-11 -5 -29 -8 -40 -8 -16 0 -15 2 5 8 34 11
60 11 35 0z m-2598 -6 c-3 -3 -12 -4 -19 -1 -8 3 -5 6 6 6 11 1 17 -2 13 -5z
m151 -11 c-21 -2 -57 -2 -80 0 -24 2 -7 4 37 4 44 0 63 -2 43 -4z m2340 0
c-21 -2 -57 -2 -80 0 -24 2 -7 4 37 4 44 0 63 -2 43 -4z"/>
<path d="M8410 8984 c-789 -6 -1661 -12 -1937 -13 l-503 -1 0 -217 c0 -120 -3
-248 -7 -285 l-6 -68 -211 0 c-358 -1 -514 -19 -712 -85 -225 -75 -413 -192
-589 -369 -130 -131 -215 -245 -287 -391 -295 -589 -182 -1289 283 -1754 199
-200 432 -333 704 -401 151 -38 278 -50 535 -50 l219 0 -4 -32 c-10 -74 -199
-4267 -193 -4273 8 -8 8 -8 1137 764 l923 631 177 0 c97 0 633 -12 1191 -26
1110 -28 1392 -27 1610 5 730 108 1278 423 1622 935 317 472 431 1076 313
1661 -21 103 -65 258 -90 318 -7 16 6 17 184 17 302 0 498 31 697 110 462 183
818 602 925 1090 73 337 28 692 -129 1005 -72 146 -157 260 -287 391 -176 177
-364 294 -589 369 -224 75 -392 90 -895 82 l-354 -6 -88 83 c-152 145 -302
249 -497 346 -153 76 -269 116 -406 140 -257 45 -295 45 -2736 24z m2500 -455
c197 -18 293 -45 456 -127 216 -109 454 -318 583 -512 318 -480 364 -1108 120
-1629 -73 -156 -220 -353 -327 -436 -28 -22 -51 -42 -51 -45 0 -3 22 -20 49
-38 73 -50 213 -200 276 -297 343 -526 328 -1302 -35 -1832 -281 -411 -720
-662 -1301 -743 -199 -28 -346 -28 -1500 1 -635 16 -1244 29 -1352 29 l-197 0
-611 -391 c-336 -215 -613 -390 -615 -387 -6 6 11 4317 17 4324 8 7 3513 -54
3742 -66 382 -20 601 30 724 165 78 85 95 151 90 348 -3 141 -6 156 -31 212
-32 68 -113 157 -172 187 -105 55 -260 67 -584 49 -348 -21 -3775 -149 -3783
-142 -6 6 11 1302 17 1309 4 5 2947 29 3735 30 385 1 680 -2 750 -9z m-5210
-1656 l0 -1066 -117 6 c-491 25 -892 367 -1000 852 -22 99 -21 316 1 420 25
113 75 241 132 337 62 104 230 277 332 343 175 112 368 170 585 174 l67 1 0
-1067z m7451 1033 c200 -50 364 -143 502 -283 122 -123 193 -234 248 -384 49
-135 62 -210 62 -364 0 -240 -57 -421 -194 -615 -189 -268 -489 -431 -826
-447 l-123 -6 0 1068 0 1068 118 -6 c72 -4 155 -16 213 -31z"/>
<path d="M7680 4580 l0 -700 1320 0 c1451 0 1390 -2 1548 61 164 65 334 210
404 345 53 101 71 179 71 299 -2 171 -52 291 -177 423 -115 121 -239 195 -405
240 l-96 27 -1332 3 -1333 3 0 -701z"/>
</g>
</svg>
