<svg xmlns="http://www.w3.org/2000/svg" viewBox="0 0 192 192" width="192" height="192">
  <defs>
    <linearGradient id="grad" x1="0%" y1="0%" x2="100%" y2="100%">
      <stop offset="0%" style="stop-color:#075E54;stop-opacity:1" />
      <stop offset="100%" style="stop-color:#25D366;stop-opacity:1" />
    </linearGradient>
  </defs>
  <rect width="192" height="192" rx="40" fill="url(#grad)"/>
  <path d="M96 40c-30.9 0-56 25.1-56 56 0 9.9 2.6 19.2 7.1 27.3L40 152l29.5-7.7c7.8 4.3 16.7 6.7 26.5 6.7 30.9 0 56-25.1 56-56s-25.1-56-56-56zm0 102c-8.5 0-16.8-2.3-24-6.6l-1.7-1-17.6 4.6 4.7-17.2-.9-1.5c-4.7-7.5-7.2-16.2-7.2-25.3 0-25.4 20.6-46 46-46s46 20.6 46 46-20.6 46-46 46zm25.2-34.4c-1.4-.7-8.2-4-9.5-4.5s-2.2-.7-3.1.7-3.6 4.5-4.4 5.4-1.6.9-3 .3c-1.4-.7-5.9-2.2-11.2-6.9-4.1-3.7-6.9-8.2-7.7-9.6s-.1-2.1.6-2.8c.6-.6 1.4-1.6 2.1-2.4s.9-1.4 1.4-2.3.2-1.7-.1-2.4c-.3-.7-3.1-7.4-4.2-10.2-1.1-2.7-2.2-2.3-3.1-2.3h-2.6c-.9 0-2.4.3-3.6 1.7s-4.8 4.7-4.8 11.4 4.9 13.2 5.6 14.1c.7.9 9.7 14.8 23.5 20.8 3.3 1.4 5.9 2.3 7.9 2.9 3.3 1 6.3.9 8.7.5 2.7-.4 8.2-3.3 9.4-6.6 1.2-3.2 1.2-6 .8-6.6-.3-.5-1.2-.8-2.6-1.5z" fill="white"/>
</svg>
